<!DOCTYPE svg PUBLIC "-//W3C//DTD SVG 1.1//EN" "http://www.w3.org/Graphics/SVG/1.1/DTD/svg11.dtd">
<!-- Uploaded to: SVG Repo, www.svgrepo.com, Transformed by: SVG Repo Mixer Tools -->
<svg width="256px" height="256px" viewBox="0 0 512 512" xmlns="http://www.w3.org/2000/svg" fill="#ffffff" stroke="#ffffff">
<g id="SVGRepo_bgCarrier" stroke-width="0"/>
<g id="SVGRepo_tracerCarrier" stroke-linecap="round" stroke-linejoin="round"/>
<g id="SVGRepo_iconCarrier">
<path fill="#ffffff" d="M256 16c-24 0-72 24-72 48s48 24 72 96c24-72 72-72 72-96s-48-48-72-48zM64 184c-24 0-48 48-48 72s24 72 48 72 24-48 96-72c-72-24-72-72-96-72zm384 0c-24 0-24 48-96 72 72 24 72 72 96 72s48-48 48-72-24-72-48-72zm-189.906.03A72 72 0 0 0 184 256a72 72 0 0 0 144 0 72 72 0 0 0-69.906-71.97zM256 352c-24 72-72 72-72 96s48 48 72 48 72-24 72-48-48-24-72-96z"/>
</g>
</svg>